#!OML:ASF H:\IndianDance\Patient Classification 1\Patient 1\Session 1\dancer.ASF
:FULLY-SPECIFIED
:DEGREES
3383
root -0.850986 14.9159 21.4626 -178.415 15.9878 -169.755
lowerback 7.31668 0.726878 1.53394
upperback 0.648921 1.39854 3.65797
thorax -3.49134 0.77104 2.77918
lowerneck -21.3903 2.58397 3.24308
upperneck 21.1129 1.94916 3.57407
head 10.3009 1.72724 1.05216
rclavicle -7.80603e-014 7.7526e-015
rhumerus -45.1285 -28.8674 -37.991
rradius 23.0612
rwrist 12.5592
rhand -1.25592 5.22484
rfingers 7.12502
rthumb 24.3869 -23.2433
lclavicle -7.80603e-014 7.7526e-015
lhumerus -8.3186 -23.4086 77.2655
lradius 87.02
lwrist 18.7746
lhand -9.41448 -344.746
lfingers 7.12502
lthumb 16.5474 44.5681
rfemur -11.1792 -7.65238 38.3205
rtibia 36.3069
rfoot -21.4859 -12.427
rtoes 18.874
lfemur -45.5066 14.5373 -17.3506
ltibia 37.5173
lfoot 19.2943 -2.3602
ltoes 9.47328
3384
root -0.869462 14.8983 21.5371 -178.488 15.7755 -169.731
lowerback 7.42306 0.784493 1.56405
upperback 0.682625 1.48423 3.66513
thorax -3.51878 0.814561 2.75953
lowerneck -21.3393 2.55954 3.26778
upperneck 21.0198 1.93179 3.47574
head 10.2588 1.7053 1.00754
rclavicle 1.20762e-014 -7.95139e-016
rhumerus -45.3036 -29.4953 -38.0223
rradius 22.7536
rwrist 13.0875
rhand -2.03478 5.12036
rfingers 7.12502
rthumb 23.64 -23.4462
lclavicle 1.20762e-014 -7.95139e-016
lhumerus -8.64332 -23.8442 77.547
lradius 89.314
lwrist 19.496
lhand -9.7463 -344.728
lfingers 7.12502
lthumb 16.2279 44.6124
rfemur -11.7581 -7.71398 38.4144
rtibia 36.8879
rfoot -21.5898 -12.5245
rtoes 19.397
lfemur -45.9234 14.1519 -16.8513
ltibia 39.9162
lfoot 17.2785 -4.33383
ltoes 7.14325
3385
root -0.888291 14.8807 21.6104 -178.562 15.569 -169.711
lowerback 7.51903 0.846164 1.58886
upperback 0.716352 1.57492 3.67702
thorax -3.54073 0.860777 2.74719
lowerneck -21.2755 2.53812 3.30236
upperneck 20.9282 1.92138 3.35538
head 10.2153 1.68459 0.95442
rclavicle -1.98909e-014 1.82882e-014
rhumerus -45.4754 -30.1279 -38.0791
rradius 22.4674
rwrist 13.6543
rhand -2.81883 5.03235
rfingers 7.12502
rthumb 22.8878 -23.6293
lclavicle -1.98909e-014 1.82882e-014
lhumerus -8.95339 -24.2687 77.842
lradius 91.6027
lwrist 20.2271
lhand -9.96184 -344.737
lfingers 7.12502
lthumb 16.0204 44.621
rfemur -12.3279 -7.78442 38.4988
rtibia 37.4605
rfoot -21.6892 -12.6173
rtoes 19.8586
lfemur -46.3366 13.7579 -16.3393
ltibia 42.4637
lfoot 15.1872 -6.09439
ltoes 5.10155
3386
root -0.907424 14.8637 21.6822 -178.642 15.3668 -169.704
lowerback 7.60392 0.908722 1.60107
upperback 0.75088 1.66526 3.69007
thorax -3.55595 0.906962 2.74319
lowerneck -21.2089 2.52189 3.33988
upperneck 20.8502 1.92006 3.22448
head 10.1763 1.66747 0.89879
rclavicle 4.77083e-015 -1.23246e-014
rhumerus -45.6232 -30.7531 -38.1728
rradius 22.1903
rwrist 14.2377
rhand -3.59558 4.96478
rfingers 7.12502
rthumb 22.1423 -23.7872
lclavicle 4.77083e-015 -1.23246e-014
lhumerus -9.25192 -24.674 78.1424
lradius 93.8811
lwrist 20.9435
lhand -10.0622 -344.775
lfingers 7.12502
lthumb 15.9237 44.5904
rfemur -12.8798 -7.87842 38.5609
rtibia 38.0145
rfoot -21.7828 -12.6939
rtoes 20.2497
lfemur -46.7271 13.3575 -15.8271
ltibia 45.1282
lfoot 13.0958 -7.59691
ltoes 3.31566
3387
root -0.927083 14.8482 21.7526 -178.743 15.1641 -169.751
lowerback 7.67474 0.976145 1.56078
upperback 0.789374 1.75578 3.69843
thorax -3.5605 0.953584 2.76395
lowerneck -21.1448 2.50741 3.37464
upperneck 20.7911 1.92582 3.07699
head 10.1447 1.65185 0.839275
rclavicle -2.18787e-014 -3.55825e-014
rhumerus -45.7515 -31.3683 -38.294
rradius 21.9427
rwrist 14.8143
rhand -4.3455 4.9018
rfingers 7.12502
rthumb 21.4222 -23.9339
lclavicle -2.18787e-014 -3.55825e-014
lhumerus -9.52903 -25.063 78.4648
lradius 96.1313
lwrist 21.6124
lhand -10.0638 -344.849
lfingers 7.12502
lthumb 15.9222 44.5166
rfemur -13.4091 -8.00805 38.5536
rtibia 38.5451
rfoot -21.8668 -12.7499
rtoes 20.5269
lfemur -47.0699 12.9451 -15.3638
ltibia 47.8717
lfoot 11.0699 -8.80667
ltoes 1.78588
3388
root -0.94717 14.834 21.8214 -178.842 14.9706 -169.8
lowerback 7.72171 1.0472 1.51764
upperback 0.831785 1.85054 3.71477
thorax -3.54829 1.00262 2.79448
lowerneck -21.087 2.49871 3.411
upperneck 20.7523 1.94293 2.91181
head 10.1217 1.63998 0.775457
rclavicle 2.58172e-014 -7.15625e-015
rhumerus -45.8434 -31.9712 -38.4538
rradius 21.712
rwrist 15.375
rhand -5.06551 4.84777
rfingers 7.12502
rthumb 20.7305 -24.065
lclavicle 2.58172e-014 -7.15625e-015
lhumerus -9.7835 -25.4361 78.7994
lradius 98.3503
lwrist 22.218
lhand -9.98826 -344.94
lfingers 7.12502
lthumb 15.995 44.4192
rfemur -13.9162 -8.15826 38.5343
rtibia 39.0445
rfoot -21.9413 -12.7734
rtoes 20.7695
lfemur -47.3657 12.5365 -14.8943
ltibia 50.6644
lfoot 9.19007 -9.70495
ltoes 0.543649
3389
root -0.967487 14.8208 21.8886 -178.94 14.7899 -169.852
lowerback 7.74831 1.1256 1.47138
upperback 0.874263 1.95476 3.73977
thorax -3.5256 1.05664 2.8351
lowerneck -21.0301 2.4913 3.43568
upperneck 20.7354 1.96778 2.73878
head 10.1066 1.6305 0.712389
rclavicle -2.81156e-014 1.41137e-014
rhumerus -45.9122 -32.5561 -38.6432
rradius 21.5053
rwrist 15.9108
rhand -5.74798 4.81289
rfingers 7.12502
rthumb 20.0746 -24.17
lclavicle -2.81156e-014 1.41137e-014
lhumerus -10.0179 -25.8011 79.1603
lradius 100.525
lwrist 22.7534
lhand -9.8582 -345.042
lfingers 7.12502
lthumb 16.1202 44.3071
rfemur -14.3992 -8.31768 38.5036
rtibia 39.5087
rfoot -22.0026 -12.7806
rtoes 20.988
lfemur -47.6045 12.1412 -14.4248
ltibia 53.4756
lfoot 7.49121 -10.3091
ltoes -0.382232
3390
root -0.988111 14.8089 21.9543 -179.034 14.6193 -169.912
lowerback 7.75288 1.21249 1.42319
upperback 0.915974 2.06954 3.76897
thorax -3.49228 1.11598 2.88046
lowerneck -20.978 2.48324 3.44621
upperneck 20.7403 1.9968 2.56441
head 10.1001 1.62241 0.652282
rclavicle 1.28837e-014 7.55382e-015
rhumerus -45.9476 -33.1244 -38.8627
rradius 21.2996
rwrist 16.406
rhand -6.39028 4.78883
rfingers 7.12502
rthumb 19.4571 -24.2577
lclavicle 1.28837e-014 7.55382e-015
lhumerus -10.2333 -26.1719 79.5464
lradius 102.653
lwrist 23.2236
lhand -9.70677 -345.156
lfingers 7.12502
lthumb 16.266 44.1813
rfemur -14.861 -8.48309 38.4578
rtibia 39.9358
rfoot -22.0457 -12.7744
rtoes 21.166
lfemur -47.7781 11.7591 -13.9645
ltibia 56.2717
lfoot 5.99485 -10.6366
ltoes -0.971328
3391
root -1.00882 14.7978 22.0186 -179.105 14.4669 -169.94
lowerback 7.73431 1.3063 1.41265
upperback 0.950261 2.19726 3.8082
thorax -3.45366 1.18163 2.91414
lowerneck -20.931 2.47953 3.45191
upperneck 20.771 2.03447 2.38852
head 10.1039 1.61871 0.594262
rclavicle -7.83957e-015 -2.06736e-014
rhumerus -45.9475 -33.6593 -39.1355
rradius 21.1012
rwrist 16.8447
rhand -6.99372 4.77617
rfingers 7.12502
rthumb 18.8769 -24.3279
lclavicle -7.83957e-015 -2.06736e-014
lhumerus -10.4319 -26.5532 79.9437
lradius 104.728
lwrist 23.6437
lhand -9.54942 -345.275
lfingers 7.12502
lthumb 16.4175 44.0498
rfemur -15.3124 -8.62981 38.445
rtibia 40.3271
rfoot -22.0695 -12.7684
rtoes 21.3374
lfemur -47.8956 11.4083 -13.4743
ltibia 59.026
lfoot 4.70622 -10.7191
ltoes -1.24456
3392
root -1.02919 14.7882 22.0814 -179.182 14.3165 -170
lowerback 7.70363 1.40993 1.37808
upperback 0.978606 2.33444 3.84052
thorax -3.41565 1.25181 2.9535
lowerneck -20.8824 2.46717 3.42681
upperneck 20.8228 2.06544 2.23769
head 10.1144 1.61354 0.549543
rclavicle 1.2921e-015 1.19271e-015
rhumerus -45.9375 -34.1701 -39.4396
rradius 20.9096
rwrist 17.2595
rhand -7.57467 4.80101
rfingers 7.12502
rthumb 18.3181 -24.3565
lclavicle 1.2921e-015 1.19271e-015
lhumerus -10.6189 -26.9674 80.3711
lradius 106.739
lwrist 24.0232
lhand -9.39846 -345.395
lfingers 7.12502
lthumb 16.5628 43.9177
rfemur -15.7416 -8.77304 38.3954
rtibia 40.6851
rfoot -22.0774 -12.7693
rtoes 21.4945
lfemur -47.9247 11.0751 -13.03
ltibia 61.7048
lfoot 3.58487 -10.5847
ltoes -1.24548
3393
root -1.04929 14.7801 22.1428 -179.251 14.1682 -170.08
lowerback 7.65413 1.52238 1.33287
upperback 0.997293 2.48102 3.86837
thorax -3.3781 1.32638 2.99374
lowerneck -20.8311 2.44824 3.37312
upperneck 20.8928 2.09258 2.10918
head 10.1302 1.60794 0.517139
rclavicle -1.67476e-014 3.97569e-015
rhumerus -45.9055 -34.6404 -39.7939
rradius 20.726
rwrist 17.6281
rhand -8.14601 4.84709
rfingers 7.12502
rthumb 17.7683 -24.3611
lclavicle -1.67476e-014 3.97569e-015
lhumerus -10.7875 -27.4207 80.8076
lradius 108.687
lwrist 24.3908
lhand -9.29976 -345.532
lfingers 7.12502
lthumb 16.6579 43.7735
rfemur -16.1617 -8.8995 38.3255
rtibia 41.0105
rfoot -22.0698 -12.7757
rtoes 21.6814
lfemur -47.8745 10.7646 -12.6227
ltibia 64.2873
lfoot 2.59054 -10.2679
ltoes -1.04189
3394
root -1.06901 14.773 22.2028 -179.297 14.0278 -170.146
lowerback 7.58655 1.63941 1.31389
upperback 1.00087 2.63502 3.8919
thorax -3.34545 1.40402 3.01444
lowerneck -20.7749 2.42648 3.30312
upperneck 20.9797 2.1161 2.00946
head 10.1508 1.60387 0.497342
rclavicle 7.26806e-015 -2.14687e-014
rhumerus -45.8558 -35.0643 -40.2188
rradius 20.5586
rwrist 17.9415
rhand -8.70654 4.91336
rfingers 7.12502
rthumb 17.2289 -24.3429
lclavicle 7.26806e-015 -2.14687e-014
lhumerus -10.9454 -27.9151 81.2377
lradius 110.569
lwrist 24.7605
lhand -9.23797 -345.678
lfingers 7.12502
lthumb 16.7174 43.6219
rfemur -16.5791 -8.9965 38.2739
rtibia 41.3057
rfoot -22.0466 -12.8184
rtoes 21.7933
lfemur -47.7523 10.4916 -12.2206
ltibia 66.7563
lfoot 1.683 -9.81002
ltoes -0.675468
3395
root -1.08844 14.7671 22.2616 -179.323 13.892 -170.207
lowerback 7.4952 1.76289 1.30252
upperback 0.995698 2.79728 3.91519
thorax -3.30881 1.48553 3.03062
lowerneck -20.7147 2.39929 3.21674
upperneck 21.0749 2.13417 1.92825
head 10.1732 1.59878 0.486113
rclavicle 2.63017e-014 -5.28767e-014
rhumerus -45.7802 -35.4462 -40.7118
rradius 20.4137
rwrist 18.1923
rhand -9.25359 4.99413
rfingers 7.12502
rthumb 16.7023 -24.3073
lclavicle 2.63017e-014 -5.28767e-014
lhumerus -11.0811 -28.4597 81.6722
lradius 112.381
lwrist 25.1484
lhand -9.24451 -345.819
lfingers 7.12502
lthumb 16.7111 43.4814
rfemur -16.9945 -9.06225 38.2302
rtibia 41.5687
rfoot -22.0096 -12.8772
rtoes 21.9727
lfemur -47.5539 10.2483 -11.8351
ltibia 69.0959
lfoot 0.834029 -9.23371
ltoes -0.212614
